<svg xmlns="http://www.w3.org/2000/svg" fill="none" viewBox="0 0 80 80"><g clip-path="url(#a)"><path fill="#3B97D3" d="M77.241 0H2.76A2.759 2.759 0 0 0 0 2.759V77.24A2.759 2.759 0 0 0 2.759 80H77.24A2.759 2.759 0 0 0 80 77.241V2.76A2.759 2.759 0 0 0 77.241 0Z"/><path fill="#2C3E50" d="M71.724 9.655a1.38 1.38 0 0 1-.975-2.354l2.759-2.759a1.38 1.38 0 1 1 1.95 1.95l-2.759 2.759a1.38 1.38 0 0 1-.975.404Z"/><path fill="#2C3E50" d="M74.483 9.655a1.38 1.38 0 0 1-.975-.404l-2.759-2.759a1.38 1.38 0 0 1 1.95-1.95l2.759 2.759a1.38 1.38 0 0 1-.975 2.354Z"/><path fill="#285680" d="M26.207 5.517H6.897a1.38 1.38 0 0 0-1.38 1.38v19.31c0 .762.618 1.38 1.38 1.38h19.31a1.38 1.38 0 0 0 1.38-1.38V6.897a1.38 1.38 0 0 0-1.38-1.38Z"/><path fill="#ECF0F1" d="M45.517 8.276H33.103a1.38 1.38 0 0 1 0-2.759h12.414a1.38 1.38 0 1 1 0 2.759ZM37.241 16.552h-4.138a1.38 1.38 0 0 1 0-2.759h4.138a1.38 1.38 0 0 1 0 2.759ZM52.414 16.552h-9.655a1.38 1.38 0 1 1 0-2.759h9.655a1.38 1.38 0 0 1 0 2.759ZM55.172 22.07H33.103a1.38 1.38 0 0 1 0-2.76h22.07a1.38 1.38 0 0 1 0 2.76ZM37.241 27.586h-4.138a1.38 1.38 0 0 1 0-2.758h4.138a1.38 1.38 0 0 1 0 2.758ZM52.414 27.586h-9.655a1.38 1.38 0 0 1 0-2.758h9.655a1.38 1.38 0 0 1 0 2.758Z"/><path fill="#2980BA" d="M20.69 33.103H6.897a1.38 1.38 0 0 0-1.38 1.38v13.793c0 .762.618 1.38 1.38 1.38H20.69a1.38 1.38 0 0 0 1.379-1.38V34.483a1.38 1.38 0 0 0-1.38-1.38ZM46.897 33.103H33.103a1.38 1.38 0 0 0-1.379 1.38v13.793c0 .762.618 1.38 1.38 1.38h13.793a1.38 1.38 0 0 0 1.379-1.38V34.483a1.38 1.38 0 0 0-1.38-1.38ZM73.103 33.103H59.31a1.38 1.38 0 0 0-1.379 1.38v13.793c0 .762.618 1.38 1.38 1.38h13.792a1.38 1.38 0 0 0 1.38-1.38V34.483a1.38 1.38 0 0 0-1.38-1.38ZM20.69 57.931H6.897a1.38 1.38 0 0 0-1.38 1.38v13.793c0 .761.618 1.379 1.38 1.379H20.69a1.38 1.38 0 0 0 1.379-1.38V59.312a1.38 1.38 0 0 0-1.38-1.38ZM46.897 57.931H33.103a1.38 1.38 0 0 0-1.379 1.38v13.793c0 .761.618 1.379 1.38 1.379h13.793a1.38 1.38 0 0 0 1.379-1.38V59.312a1.38 1.38 0 0 0-1.38-1.38ZM73.103 57.931H59.31a1.38 1.38 0 0 0-1.379 1.38v13.793c0 .761.618 1.379 1.38 1.379h13.792a1.38 1.38 0 0 0 1.38-1.38V59.312a1.38 1.38 0 0 0-1.38-1.38Z"/><path fill="#F29C1F" d="M11.034 23.448a1.38 1.38 0 0 1-.975-2.354l2.8-2.8a1.38 1.38 0 1 1 1.95 1.95l-2.8 2.8a1.38 1.38 0 0 1-.975.404Z"/><path fill="#F0C419" d="M11.034 45.517a1.38 1.38 0 0 1-.975-2.354l5.518-5.517a1.38 1.38 0 0 1 1.95 1.95l-5.517 5.517a1.38 1.38 0 0 1-.976.404ZM37.241 45.517a1.38 1.38 0 0 1-.975-2.354l5.517-5.517a1.38 1.38 0 0 1 1.95 1.95l-5.516 5.517a1.38 1.38 0 0 1-.976.404ZM22.069 11.034v4.828a4.828 4.828 0 1 1-4.828-4.828h4.828Z"/></g><defs><clipPath id="a"><path fill="#fff" d="M0 0h80v80H0z"/></clipPath></defs></svg>
