<svg xmlns="http://www.w3.org/2000/svg" fill="none" viewBox="0 0 40 40"><g filter="url(#a)"><path fill="#fff" d="M20 6.667C12.64 6.667 6.667 12.64 6.667 20S12.64 33.333 20 33.333 33.333 27.36 33.333 20 27.36 6.667 20 6.667Zm6.187 9.066c-.2 2.107-1.067 7.227-1.507 9.587-.187 1-.56 1.333-.907 1.373-.773.067-1.36-.506-2.106-1-1.174-.773-1.84-1.253-2.974-2-1.32-.866-.466-1.346.294-2.12.2-.2 3.613-3.306 3.68-3.586a.265.265 0 0 0-.067-.24c-.08-.067-.187-.04-.28-.027-.12.027-1.987 1.267-5.627 3.72-.533.36-1.013.547-1.44.533-.48-.013-1.386-.266-2.066-.493-.84-.267-1.494-.413-1.44-.88.026-.24.36-.48.986-.733 3.894-1.694 6.48-2.814 7.774-3.347 3.706-1.547 4.466-1.813 4.973-1.813.107 0 .36.026.52.16a.53.53 0 0 1 .187.36c-.014.08.013.32 0 .506Z"/></g><defs><filter id="a" width="38.667" height="38.667" x=".667" y=".667" color-interpolation-filters="sRGB" filterUnits="userSpaceOnUse"><feFlood flood-opacity="0" result="BackgroundImageFix"/><feColorMatrix in="SourceAlpha" result="hardAlpha" values="0 0 0 0 0 0 0 0 0 0 0 0 0 0 0 0 0 0 127 0"/><feOffset/><feGaussianBlur stdDeviation="3"/><feComposite in2="hardAlpha" operator="out"/><feColorMatrix values="0 0 0 0 0 0 0 0 0 0.653255 0 0 0 0 0.979883 0 0 0 0.7 0"/><feBlend in2="BackgroundImageFix" result="effect1_dropShadow_199_867"/><feBlend in="SourceGraphic" in2="effect1_dropShadow_199_867" result="shape"/></filter></defs></svg>
