<svg xmlns="http://www.w3.org/2000/svg" fill="none" viewBox="0 0 212 65"><mask id="path-1-outside-1_225_7675" width="214" height="67" x="-1" y="-.5" fill="#000" maskUnits="userSpaceOnUse"><path fill="#fff" d="M-1-.5h214v67H-1z"/><path d="M1.312 63.5v-9.592L14.424 42.16c4.048-3.6373 7.216-6.6587 9.504-9.064 2.288-2.4053 3.9013-4.5173 4.84-6.336.9387-1.8187 1.408-3.652 1.408-5.5 0-2.728-.9093-4.8253-2.728-6.292-1.7893-1.4667-4.356-2.2-7.7-2.2-2.6693 0-5.236.528-7.7 1.584-2.464 1.056-4.67867 2.6107-6.644 4.664L.432 8.412c2.78667-2.49334 5.99867-4.41467 9.636-5.764C13.7053 1.26933 17.416.58 21.2.58c4.5467 0 8.5067.792 11.88 2.376 3.3733 1.584 5.9693 3.79867 7.788 6.644 1.848 2.816 2.772 6.1013 2.772 9.856 0 2.5227-.4987 4.9867-1.496 7.392-.9973 2.4053-2.7573 5.1187-5.28 8.14-2.4933 2.992-6.0133 6.6293-10.56 10.912l-6.028 5.632h24.992V63.5H1.312Zm78.3358 1.32c-4.1653 0-7.876-.836-11.132-2.508-3.256-1.672-5.9987-3.9893-8.228-6.952-2.2293-2.9627-3.9307-6.38-5.104-10.252-1.144-3.872-1.716-8.008-1.716-12.408 0-4.4293.572-8.58 1.716-12.452 1.1733-3.872 2.8747-7.2747 5.104-10.208 2.2293-2.96267 4.972-5.28 8.228-6.952C71.7718 1.416 75.4825.58 79.6478.58c4.136 0 7.832.836 11.088 2.508 3.256 1.672 5.9987 3.98933 8.228 6.952 2.2292 2.9333 3.9162 6.336 5.0602 10.208 1.173 3.872 1.76 8.0227 1.76 12.452 0 4.4-.587 8.536-1.76 12.408-1.144 3.872-2.831 7.2893-5.0602 10.252-2.2293 2.9627-4.972 5.28-8.228 6.952-3.256 1.672-6.952 2.508-11.088 2.508Zm0-12.54c1.848 0 3.52-.4253 5.016-1.276 1.5253-.8507 2.8307-2.0973 3.916-3.74 1.0853-1.672 1.9213-3.7253 2.508-6.16.5867-2.4347.88-5.236.88-8.404 0-4.224-.5133-7.788-1.54-10.692-1.0267-2.9333-2.464-5.148-4.312-6.644-1.848-1.5253-4.004-2.288-6.468-2.288-1.848 0-3.5347.44-5.06 1.32-1.5253.8507-2.8307 2.112-3.916 3.784-1.0853 1.6427-1.9213 3.6813-2.508 6.116-.5573 2.4347-.836 5.236-.836 8.404 0 4.224.4987 7.788 1.496 10.692 1.0267 2.904 2.464 5.1187 4.312 6.644 1.848 1.496 4.0187 2.244 6.512 2.244ZM112.343 63.5v-9.592l13.112-11.748c4.048-3.6373 7.216-6.6587 9.504-9.064 2.288-2.4053 3.902-4.5173 4.84-6.336.939-1.8187 1.408-3.652 1.408-5.5 0-2.728-.909-4.8253-2.728-6.292-1.789-1.4667-4.356-2.2-7.7-2.2-2.669 0-5.236.528-7.7 1.584-2.464 1.056-4.678 2.6107-6.644 4.664l-4.972-10.604c2.787-2.49334 5.999-4.41467 9.636-5.764C124.737 1.26933 128.447.58 132.231.58c4.547 0 8.507.792 11.88 2.376 3.374 1.584 5.97 3.79867 7.788 6.644 1.848 2.816 2.772 6.1013 2.772 9.856 0 2.5227-.498 4.9867-1.496 7.392-.997 2.4053-2.757 5.1187-5.28 8.14-2.493 2.992-6.013 6.6293-10.56 10.912l-6.028 5.632h24.992V63.5h-43.956Zm78.6 0V51.928h-29.26V41.544L181.175 1.9h14.388l-18.92 38.368h14.3V28.256h12.056v12.012h8.404v11.66h-8.404V63.5h-12.056Z"/></mask><path fill="url(#paint0_linear_225_7675)" d="M1.312 63.5h-1v1h1v-1Zm0-9.592-.6673-.7448-.3327.2981v.4467h1ZM14.424 42.16l.6673.7448.0011-.001-.6684-.7438Zm9.504-9.064-.7246-.6892.7246.6892Zm4.84-6.336.8886.4586-.8886-.4586Zm-1.32-11.792-.6339.7734.0061.005.6278-.7784Zm-15.4-.616-.3939-.9192.3939.9192Zm-6.644 4.664-.90541.4245.61924 1.3207 1.00859-1.0537-.72242-.6915ZM.432 8.41199l-.6668-.74524-.55448.49612.31587.67366.90541-.42454ZM10.068 2.648l.3478.93759.0066-.00251-.3544-.93508Zm30.8 6.952-.8426.5386.0066.0101.836-.5487Zm1.276 17.248-.9237-.383.9237.383Zm-5.28 8.14-.7676-.6409-.0006.0007.7682.6402ZM26.304 45.9l.6827.7307.003-.0028-.6857-.7279Zm-6.028 5.632-.6827-.7307-1.8524 1.7307h2.5351v-1Zm24.992 0h1v-1h-1v1Zm0 11.968v1h1v-1h-1Zm-42.956 0v-9.592h-2V63.5h2Zm-.33269-8.8472 13.11199-11.748-1.3346-1.4896-13.112 11.748 1.33461 1.4896Zm13.11309-11.749c4.0568-3.6453 7.2465-6.6863 9.5602-9.1186l-1.4492-1.3784c-2.2623 2.3783-5.4086 5.38-9.4478 9.0094l1.3368 1.4876Zm9.5602-9.1186c2.3181-2.437 4.0034-4.6279 5.004-6.5666l-1.7772-.9172c-.8768 1.6986-2.4181 3.7317-4.676 6.1054l1.4492 1.3784Zm5.004-6.5666c1.0039-1.9449 1.5194-3.9345 1.5194-5.9586h-2c0 1.6719-.4232 3.349-1.2966 5.0414l1.7772.9172ZM31.176 21.26c0-2.9737-1.0053-5.381-3.1002-7.0704l-1.2556 1.5568c1.5424 1.2439 2.3558 3.0313 2.3558 5.5136h2Zm-3.0941-7.0654c-2.0327-1.6662-4.8591-2.4266-8.3339-2.4266v2c3.2132 0 5.5202.7063 7.0661 1.9734l1.2678-1.5468ZM19.748 11.768c-2.8054 0-5.506.5557-8.0939 1.6648l.7878 1.8383c2.3401-1.0028 4.7728-1.5031 7.3061-1.5031v-2Zm-8.0939 1.6648c-2.59508 1.1122-4.91982 2.7471-6.97252 4.8917l1.44484 1.383c1.87797-1.9621 3.98258-3.4365 6.31548-4.4364l-.7878-1.8383Zm-5.34469 5.1587-4.972-10.60404-1.81082.84907 4.972 10.60397 1.81082-.849ZM1.09879 9.15724C3.78862 6.75056 6.89143 4.893 10.4158 3.58557l-.69561-1.87514C5.96991 3.10167 2.64872 5.08677-.23479 7.66675l1.33358 1.49049Zm9.32361-5.57416C13.9497 2.24611 17.5405 1.58 21.2 1.58v-2c-3.9085 0-7.7391.71255-11.48643 2.13292l.70883 1.87016ZM21.2 1.58c4.4314 0 8.2406.77182 11.455 2.28117l.85-1.81035C29.9727.39217 25.8619-.42 21.2-.42v2Zm11.455 2.28117c3.2206 1.51231 5.6639 3.6075 7.3704 6.27743l1.6852-1.07716c-1.9308-3.02078-4.6795-5.35492-8.2056-7.01062l-.85 1.81035Zm7.377 6.28753c1.7289 2.6346 2.608 5.7244 2.608 9.3073h2c0-3.9265-.9689-7.4073-2.936-10.40466l-1.672 1.09736Zm2.608 9.3073c0 2.387-.4711 4.7211-1.4197 7.009l1.8474.766c1.0461-2.5227 1.5723-5.1166 1.5723-7.775h-2Zm-1.4197 7.009c-.9443 2.2772-2.6365 4.9029-5.1239 7.8821l1.5352 1.2818c2.5579-3.0635 4.3857-5.8644 5.4361-8.3979l-1.8474-.766Zm-5.1245 7.8828c-2.457 2.9484-5.9449 6.5549-10.4775 10.8243l1.3714 1.4558c4.5607-4.2959 8.1129-7.9641 10.6425-10.9997l-1.5364-1.2804ZM25.6213 45.1693l-6.028 5.632 1.3654 1.4614 6.028-5.632-1.3654-1.4614ZM20.276 52.532h24.992v-2H20.276v2Zm23.992-1V63.5h2V51.532h-2Zm1 10.968H1.312v2h43.956v-2Zm23.2478-.188-.4568.8896.4568-.8896Zm-8.228-6.952-.799.6013.799-.6013Zm-5.104-10.252-.959.2833.002.0067.957-.29Zm0-24.86-.957-.29-.002.0067.959.2833Zm5.104-10.208.7962.6051.0029-.0038-.7991-.6013Zm8.228-6.952.4568.88957-.4568-.88957Zm22.22 0-.4568.88957.4568-.88957Zm8.228 6.952-.799.6013.0029.0038.7961-.6051Zm5.0602 10.208-.959.2834.002.0066.957-.29Zm0 24.86-.957-.29-.002.0067.959.2833ZM98.9638 55.36l.7991.6013-.7991-.6013Zm-8.228 6.952-.4568-.8896.4568.8896Zm-6.072-11.308-.4871-.8734-.0072.0041.4943.8693Zm3.916-3.74.8344.5513.0044-.0068-.8388-.5445Zm2.508-6.16.9722.2343-.9722-.2343Zm-.66-19.096-.9438.3304.001.0029.9428-.3333Zm-4.312-6.644-.6366.7713.0074.0059.6292-.7772Zm-11.528-.968.4871.8734.0063-.0036.0063-.0036-.4997-.8662Zm-3.916 3.784.8344.5513.0044-.0068-.8388-.5445Zm-2.508 6.116-.9722-.2343-.0026.0112.9748.2231Zm.66 19.096-.9458.3248.003.0085.9428-.3333Zm4.312 6.644-.6366.7713.0074.0059.6292-.7772Zm6.512 13.784c-4.0285 0-7.5789-.8076-10.6752-2.3976l-.9136 1.7792c3.4158 1.754 7.2867 2.6184 11.5888 2.6184v-2Zm-10.6752-2.3976c-3.1198-1.602-5.746-3.8201-7.8857-6.6637l-1.5981 1.2026c2.3189 3.0817 5.178 5.4983 8.5702 7.2403l.9136-1.7792Zm-7.8857-6.6637c-2.1527-2.8608-3.8036-6.1707-4.9461-9.9407l-1.914.58c1.2042 3.974 2.956 7.4987 5.262 10.5633l1.5981-1.2026Zm-4.9441-9.934c-1.1145-3.7722-1.675-7.8121-1.675-12.1247h-2c0 4.4874.5835 8.7195 1.757 12.6913l1.918-.5666ZM54.4678 32.7c0-4.3426.5607-8.3971 1.675-12.1687l-1.918-.5666c-1.1737 3.9724-1.757 8.2193-1.757 12.7353h2Zm1.673-12.162c1.1423-3.7694 2.7925-7.0631 4.9432-9.8929l-1.5924-1.21018c-2.3079 3.03678-4.0604 6.54848-5.2648 10.52308l1.914.58Zm4.9461-9.8967c2.1397-2.84361 4.7659-5.06167 7.8857-6.66373l-.9136-1.77914c-3.3922 1.74193-6.2513 4.15854-8.5702 7.2403l1.5981 1.20257Zm7.8857-6.66373C72.0689 2.3876 75.6193 1.58 79.6478 1.58v-2c-4.3021 0-8.173.8644-11.5888 2.61843l.9136 1.77914ZM79.6478 1.58c3.998 0 7.534.8071 10.6312 2.39757l.9136-1.77914C87.7778.44489 83.9218-.42 79.6478-.42v2ZM90.279 3.97757c3.1198 1.60206 5.746 3.82012 7.8858 6.66373l1.5981-1.20257c-2.319-3.08176-5.1781-5.49837-8.5703-7.2403l-.9136 1.77914Zm7.8887 6.66753c2.1493 2.828 3.7843 6.1193 4.8973 9.8862l1.918-.5666c-1.175-3.9771-2.914-7.4911-5.223-10.52978l-1.5923 1.21018Zm4.8993 9.8929c1.142 3.7695 1.717 7.8217 1.717 12.162h2c0-4.5183-.599-8.7675-1.803-12.742l-1.914.58Zm1.717 12.162c0 4.3103-.575 8.3479-1.717 12.118l1.914.58c1.204-3.9739 1.803-8.2083 1.803-12.698h-2Zm-1.719 12.1247c-1.113 3.7675-2.749 7.0751-4.9002 9.934l1.5981 1.2026c2.3071-3.0664 4.0451-6.5935 5.2201-10.57l-1.918-.5666Zm-4.9002 9.934c-2.1398 2.8436-4.766 5.0617-7.8858 6.6637l.9136 1.7792c3.3922-1.742 6.2513-4.1586 8.5703-7.2403l-1.5981-1.2026Zm-7.8858 6.6637c-3.0972 1.5905-6.6332 2.3976-10.6312 2.3976v2c4.274 0 8.13-.8649 11.5448-2.6184l-.9136-1.7792ZM79.6478 53.28c2.0081 0 3.8526-.4641 5.5103-1.4067l-.9886-1.7386c-1.3342.7587-2.8338 1.1453-4.5217 1.1453v2Zm5.5031-1.4026c1.6822-.9382 3.101-2.303 4.2633-4.0621l-1.6687-1.1026c-1.0084 1.5263-2.2003 2.6547-3.5688 3.4179l.9742 1.7468Zm4.2677-4.0689c1.1606-1.7879 2.0347-3.9524 2.6414-6.4702l-1.9444-.4686c-.5666 2.3515-1.3645 4.2937-2.3746 5.8498l1.6776 1.089Zm2.6414-6.4702c.6093-2.5285.9078-5.4111.9078-8.6383h-2c0 3.1088-.2881 5.8289-.8522 8.1697l1.9444.4686Zm.9078-8.6383c0-4.2984-.5215-7.9827-1.5972-11.0253l-1.8856.6666c.9777 2.7654 1.4828 6.2091 1.4828 10.3587h2Zm-1.5961-11.0223c-1.0696-3.056-2.5963-5.4473-4.6267-7.0909l-1.2584 1.5544c1.6657 1.3484 3.0136 3.3864 3.9974 6.1971l1.8877-.6606Zm-4.6193-7.0849c-2.0326-1.6777-4.4154-2.5168-7.1046-2.5168v2c2.2389 0 4.1681.6863 5.8314 2.0592l1.2732-1.5424Zm-7.1046-2.5168c-2.0144 0-3.8748.4817-5.5597 1.4538l.9994 1.7324c1.3658-.7879 2.8787-1.1862 4.5603-1.1862v-2Zm-5.5471 1.4466c-1.6866.9406-3.1063 2.3238-4.2677 4.1129l1.6776 1.089c1.0093-1.5549 2.2002-2.6944 3.5643-3.4551l-.9742-1.7468Zm-4.2632 4.1061c-1.1641 1.7619-2.0391 3.9148-2.6459 6.433l1.9444.4686c.5665-2.3511 1.3635-4.2755 2.3701-5.799l-1.6686-1.1026Zm-2.6485 6.4442c-.5778 2.5243-.8612 5.403-.8612 8.6271h2c0-3.1119.274-5.8358.8108-8.1809l-1.9496-.4462ZM66.3278 32.7c0 4.296.5063 7.9772 1.5502 11.0168l1.8916-.6496c-.9508-2.7684-1.4418-6.2152-1.4418-10.3672h-2Zm1.5532 11.0253c1.0702 3.0271 2.5957 5.4125 4.6182 7.0819l1.2732-1.5424c-1.6735-1.3813-3.0226-3.4252-4.0058-6.2061l-1.8856.6666Zm4.6256 7.0879c2.0352 1.6476 4.4309 2.4668 7.1412 2.4668v-2c-2.2763 0-4.222-.6768-5.8828-2.0212l-1.2584 1.5544ZM112.343 63.5h-1v1h1v-1Zm0-9.592-.667-.7448-.333.2981v.4467h1Zm13.112-11.748.668.7448.001-.001-.669-.7438Zm9.504-9.064-.724-.6892.724.6892Zm4.84-6.336.889.4586-.889-.4586Zm-1.32-11.792-.634.7734.007.005.627-.7784Zm-15.4-.616-.394-.9192.394.9192Zm-6.644 4.664-.905.4245.619 1.3207 1.009-1.0537-.723-.6915Zm-4.972-10.60401-.667-.74524-.554.49612.316.67366.905-.42454Zm9.636-5.76399.348.93759.007-.00251-.355-.93508Zm30.8 6.952-.842.5386.006.0101.836-.5487Zm1.276 17.248-.923-.383.923.383Zm-5.28 8.14-.767-.6409-.001.0007.768.6402ZM137.335 45.9l.683.7307.003-.0028-.686-.7279Zm-6.028 5.632-.682-.7307-1.853 1.7307h2.535v-1Zm24.992 0h1v-1h-1v1Zm0 11.968v1h1v-1h-1Zm-42.956 0v-9.592h-2V63.5h2Zm-.332-8.8472 13.112-11.748-1.335-1.4896-13.112 11.748 1.335 1.4896Zm13.113-11.749c4.056-3.6453 7.246-6.6863 9.56-9.1186l-1.449-1.3784c-2.263 2.3783-5.409 5.38-9.448 9.0094l1.337 1.4876Zm9.56-9.1186c2.318-2.437 4.003-4.6279 5.004-6.5666l-1.777-.9172c-.877 1.6986-2.418 3.7317-4.676 6.1054l1.449 1.3784Zm5.004-6.5666c1.004-1.9449 1.519-3.9345 1.519-5.9586h-2c0 1.6719-.423 3.349-1.296 5.0414l1.777.9172Zm1.519-5.9586c0-2.9737-1.005-5.381-3.1-7.0704l-1.255 1.5568c1.542 1.2439 2.355 3.0313 2.355 5.5136h2Zm-3.094-7.0654c-2.033-1.6662-4.859-2.4266-8.334-2.4266v2c3.213 0 5.52.7063 7.066 1.9734l1.268-1.5468Zm-8.334-2.4266c-2.805 0-5.506.5557-8.094 1.6648l.788 1.8383c2.34-1.0028 4.773-1.5031 7.306-1.5031v-2Zm-8.094 1.6648c-2.595 1.1122-4.919 2.7471-6.972 4.8917l1.445 1.383c1.878-1.9621 3.982-3.4365 6.315-4.4364l-.788-1.8383Zm-5.344 5.1587-4.972-10.60404-1.811.84907 4.972 10.60397 1.811-.849Zm-5.211-9.43426c2.69-2.40668 5.793-4.26424 9.317-5.57167l-.696-1.87514c-3.75 1.39124-7.071 3.37634-9.955 5.95632l1.334 1.49049Zm9.324-5.57416C124.981 2.24611 128.572 1.58 132.231 1.58v-2c-3.908 0-7.739.71255-11.486 2.13292l.709 1.87016ZM132.231 1.58c4.432 0 8.241.77182 11.455 2.28117l.85-1.81035C141.004.39217 136.893-.42 132.231-.42v2Zm11.455 2.28117c3.221 1.51231 5.664 3.6075 7.371 6.27743l1.685-1.07716c-1.931-3.02078-4.68-5.35492-8.206-7.01062l-.85 1.81035Zm7.377 6.28753c1.729 2.6346 2.608 5.7244 2.608 9.3073h2c0-3.9265-.969-7.4073-2.936-10.40466l-1.672 1.09736Zm2.608 9.3073c0 2.387-.471 4.7211-1.419 7.009l1.847.766c1.046-2.5227 1.572-5.1166 1.572-7.775h-2Zm-1.419 7.009c-.945 2.2772-2.637 4.9029-5.124 7.8821l1.535 1.2818c2.558-3.0635 4.386-5.8644 5.436-8.3979l-1.847-.766Zm-5.125 7.8828c-2.457 2.9484-5.945 6.5549-10.477 10.8243l1.371 1.4558c4.561-4.2959 8.113-7.9641 10.642-10.9997l-1.536-1.2804Zm-10.474 10.8215-6.028 5.632 1.365 1.4614 6.028-5.632-1.365-1.4614Zm-5.346 7.3627h24.992v-2h-24.992v2Zm23.992-1V63.5h2V51.532h-2Zm1 10.968h-43.956v2h43.956v-2Zm34.644 1h-1v1h1v-1Zm0-11.572h1v-1h-1v1Zm-29.26 0h-1v1h1v-1Zm0-10.384-.897-.4412-.103.2087v.2325h1ZM181.175 1.9v-1h-.623l-.274.55877.897.44123Zm14.388 0 .897.44227L197.171.9h-1.608v1Zm-18.92 38.368-.897-.4423-.711 1.4423h1.608v-1Zm14.3 0v1h1v-1h-1Zm0-12.012v-1h-1v1h1Zm12.056 0h1v-1h-1v1Zm0 12.012h-1v1h1v-1Zm8.404 0h1v-1h-1v1Zm0 11.66v1h1v-1h-1Zm-8.404 0v-1h-1v1h1Zm0 11.572v1h1v-1h-1Zm-11.056 0V51.928h-2V63.5h2Zm-1-12.572h-29.26v2h29.26v-2Zm-28.26 1V41.544h-2v10.384h2Zm-.103-9.9428 19.492-39.64398-1.794-.88245-19.492 39.64403 1.794.8824ZM181.175 2.9h14.388v-2h-14.388v2Zm13.491-1.44227-18.92 38.36797 1.794.8846 18.92-38.36803-1.794-.88454ZM176.643 41.268h14.3v-2h-14.3v2Zm15.3-1V28.256h-2v12.012h2Zm-1-11.012h12.056v-2h-12.056v2Zm11.056-1v12.012h2V28.256h-2Zm1 13.012h8.404v-2h-8.404v2Zm7.404-1v11.66h2v-11.66h-2Zm1 10.66h-8.404v2h8.404v-2Zm-9.404 1V63.5h2V51.928h-2Zm1 10.572h-12.056v2h12.056v-2Z" mask="url(#path-1-outside-1_225_7675)"/><defs><linearGradient id="paint0_linear_225_7675" x1="-3" x2="214" y1="43.5" y2="43.5" gradientUnits="userSpaceOnUse"><stop stop-color="#411704"/><stop offset="1" stop-color="#C74600"/></linearGradient></defs></svg>
